<?xml version="1.0" standalone="no"?>
<!DOCTYPE svg PUBLIC "-//W3C//DTD SVG 20010904//EN"
 "http://www.w3.org/TR/2001/REC-SVG-20010904/DTD/svg10.dtd">
<svg version="1.0" xmlns="http://www.w3.org/2000/svg"
 width="1000.000000pt" height="707.000000pt" viewBox="0 0 1000.000000 707.000000"
 preserveAspectRatio="xMidYMid meet">

<g transform="translate(0.000000,707.000000) scale(0.100000,-0.100000)"
fill="#000000" stroke="none">
<path d="M7013 7063 l-73 -4 0 -818 0 -819 63 23 c101 37 209 48 401 42 202
-6 282 -24 426 -94 81 -39 108 -59 185 -137 75 -76 99 -108 141 -191 28 -55
61 -135 75 -177 13 -43 28 -78 32 -78 5 0 77 19 161 41 83 23 174 47 201 54
28 7 133 35 235 63 102 28 320 86 485 131 499 133 598 160 603 165 8 9 -68
259 -115 376 -329 826 -980 1284 -2003 1411 -87 10 -687 20 -817 12z"/>
<path d="M40 3535 l0 -3525 911 0 912 0 -7 1798 c-3 988 -9 1890 -12 2005 -7
203 -6 207 13 207 15 0 26 -13 41 -47 11 -27 81 -194 157 -373 205 -487 419
-993 460 -1085 8 -16 55 -127 106 -245 50 -118 101 -237 113 -265 13 -27 49
-112 81 -187 l59 -138 536 0 537 0 103 243 c56 133 110 260 120 282 37 85 106
245 280 655 100 234 187 439 195 455 7 17 67 158 133 315 141 336 162 383 181
388 12 4 13 -39 8 -284 -4 -159 -10 -634 -13 -1056 -6 -596 -4 -768 5 -768 12
0 60 13 521 136 113 31 246 66 295 79 50 13 223 60 385 104 162 44 297 78 301
75 4 -2 17 -35 30 -72 27 -84 70 -169 122 -246 48 -70 164 -189 181 -183 8 3
11 144 11 522 l0 518 -185 67 c-339 123 -575 234 -776 365 -162 105 -222 153
-343 270 -178 172 -287 321 -386 527 -135 281 -198 582 -198 953 0 385 64 683
208 970 191 381 503 664 936 848 115 49 284 104 419 136 67 16 300 61 317 61
2 0 3 5 3 10 0 7 -339 10 -997 10 l-998 -1 -70 -152 c-38 -84 -95 -206 -126
-272 -56 -119 -159 -339 -226 -485 -20 -41 -86 -183 -148 -315 -62 -132 -126
-269 -143 -305 -16 -36 -67 -144 -112 -240 -45 -96 -96 -204 -112 -240 -79
-169 -256 -547 -304 -649 -30 -62 -54 -117 -54 -121 0 -11 -30 -21 -42 -14 -7
5 -208 409 -208 419 0 2 -47 101 -105 220 -58 120 -105 218 -105 220 0 1 -38
81 -84 176 -73 153 -180 375 -361 754 -29 61 -83 173 -120 250 -37 77 -82 172
-101 211 -18 39 -76 160 -129 270 -53 109 -104 216 -112 237 l-15 37 -1044 0
-1044 0 0 -3525z"/>
<path d="M6763 5235 c-26 -56 -28 -69 -28 -185 0 -115 2 -130 27 -183 15 -32
32 -56 37 -53 13 8 14 446 2 466 -8 11 -16 1 -38 -45z"/>
<path d="M6940 3731 c0 -876 1 -929 18 -934 9 -2 58 -17 107 -31 50 -15 164
-47 255 -72 605 -165 780 -278 823 -529 14 -83 0 -191 -36 -269 -31 -67 -111
-149 -183 -188 -214 -116 -664 -124 -934 -18 l-50 20 0 -829 0 -828 113 -13
c61 -7 221 -15 354 -17 578 -12 1137 94 1527 289 595 298 922 788 1002 1503
20 183 15 532 -11 695 -136 868 -656 1388 -1710 1710 -148 45 -264 80 -315 93
-431 115 -780 236 -910 316 l-50 31 0 -929z"/>
<path d="M4951 662 l-1 -652 928 2 927 3 3 22 c4 29 -16 39 -129 58 -340 58
-722 206 -989 382 -276 183 -518 440 -664 708 -30 55 -60 107 -65 115 -7 10
-10 -204 -10 -638z"/>
</g>
</svg>
